<mxfile host="app.diagrams.net" modified="2022-08-24T07:45:59.234Z" agent="5.0 (Windows NT 10.0; Win64; x64) AppleWebKit/537.36 (KHTML, like Gecko) Chrome/104.0.0.0 Safari/537.36" etag="sLw2PXLjH2kLHs4abu1X" version="20.2.6" type="github">
  <diagram id="06q67e0eo0sH8_D3uSy_" name="페이지-1">
    <mxGraphModel dx="1102" dy="1749" grid="1" gridSize="10" guides="1" tooltips="1" connect="1" arrows="1" fold="1" page="1" pageScale="1" pageWidth="827" pageHeight="1169" math="0" shadow="0">
      <root>
        <mxCell id="0" />
        <mxCell id="1" parent="0" />
        <mxCell id="tB0mkt_xWfgJxFO7g79Q-1" value="고객" style="shape=umlActor;verticalLabelPosition=bottom;verticalAlign=top;html=1;outlineConnect=0;" vertex="1" parent="1">
          <mxGeometry x="30" width="30" height="60" as="geometry" />
        </mxCell>
        <mxCell id="tB0mkt_xWfgJxFO7g79Q-6" value="관리자" style="shape=umlActor;verticalLabelPosition=bottom;verticalAlign=top;html=1;outlineConnect=0;" vertex="1" parent="1">
          <mxGeometry x="750" y="280" width="30" height="60" as="geometry" />
        </mxCell>
        <mxCell id="tB0mkt_xWfgJxFO7g79Q-7" value="결제API" style="shape=umlActor;verticalLabelPosition=bottom;verticalAlign=top;html=1;outlineConnect=0;" vertex="1" parent="1">
          <mxGeometry x="480" y="400" width="30" height="60" as="geometry" />
        </mxCell>
        <mxCell id="tB0mkt_xWfgJxFO7g79Q-8" value="본인인증API" style="shape=umlActor;verticalLabelPosition=bottom;verticalAlign=top;html=1;outlineConnect=0;" vertex="1" parent="1">
          <mxGeometry x="440" y="-130" width="30" height="60" as="geometry" />
        </mxCell>
        <mxCell id="tB0mkt_xWfgJxFO7g79Q-10" value="" style="rounded=0;whiteSpace=wrap;html=1;" vertex="1" parent="1">
          <mxGeometry x="110" y="-50" width="610" height="420" as="geometry" />
        </mxCell>
        <mxCell id="tB0mkt_xWfgJxFO7g79Q-11" value="상품 상세정보 보기" style="ellipse;whiteSpace=wrap;html=1;" vertex="1" parent="1">
          <mxGeometry x="230" y="50" width="110" height="40" as="geometry" />
        </mxCell>
        <mxCell id="tB0mkt_xWfgJxFO7g79Q-12" value="상품 검색하기" style="ellipse;whiteSpace=wrap;html=1;" vertex="1" parent="1">
          <mxGeometry x="260" y="140" width="100" height="40" as="geometry" />
        </mxCell>
        <mxCell id="tB0mkt_xWfgJxFO7g79Q-14" value="상품 정렬하기" style="ellipse;whiteSpace=wrap;html=1;" vertex="1" parent="1">
          <mxGeometry x="250" y="200" width="100" height="40" as="geometry" />
        </mxCell>
        <mxCell id="tB0mkt_xWfgJxFO7g79Q-15" value="상품&lt;br&gt;장바구니에&lt;br&gt;넣기" style="ellipse;whiteSpace=wrap;html=1;" vertex="1" parent="1">
          <mxGeometry x="200" y="260" width="100" height="50" as="geometry" />
        </mxCell>
        <mxCell id="tB0mkt_xWfgJxFO7g79Q-18" value="회원가입하기" style="ellipse;whiteSpace=wrap;html=1;" vertex="1" parent="1">
          <mxGeometry x="270" y="-30" width="100" height="40" as="geometry" />
        </mxCell>
        <mxCell id="tB0mkt_xWfgJxFO7g79Q-19" value="로그인" style="ellipse;whiteSpace=wrap;html=1;" vertex="1" parent="1">
          <mxGeometry x="440" y="30" width="80" height="40" as="geometry" />
        </mxCell>
        <mxCell id="tB0mkt_xWfgJxFO7g79Q-22" value="" style="endArrow=none;html=1;rounded=0;entryX=0.5;entryY=0.5;entryDx=0;entryDy=0;entryPerimeter=0;exitX=1;exitY=0.5;exitDx=0;exitDy=0;" edge="1" parent="1" source="tB0mkt_xWfgJxFO7g79Q-18" target="tB0mkt_xWfgJxFO7g79Q-8">
          <mxGeometry width="50" height="50" relative="1" as="geometry">
            <mxPoint x="430" y="-50" as="sourcePoint" />
            <mxPoint x="480" y="-100" as="targetPoint" />
          </mxGeometry>
        </mxCell>
        <mxCell id="tB0mkt_xWfgJxFO7g79Q-23" value="" style="endArrow=none;html=1;rounded=0;entryX=0;entryY=0.5;entryDx=0;entryDy=0;" edge="1" parent="1" source="tB0mkt_xWfgJxFO7g79Q-1" target="tB0mkt_xWfgJxFO7g79Q-18">
          <mxGeometry width="50" height="50" relative="1" as="geometry">
            <mxPoint x="390" y="130" as="sourcePoint" />
            <mxPoint x="440" y="80" as="targetPoint" />
          </mxGeometry>
        </mxCell>
        <mxCell id="tB0mkt_xWfgJxFO7g79Q-25" value="" style="endArrow=none;html=1;rounded=0;entryX=0;entryY=0.5;entryDx=0;entryDy=0;" edge="1" parent="1" source="tB0mkt_xWfgJxFO7g79Q-1" target="tB0mkt_xWfgJxFO7g79Q-11">
          <mxGeometry width="50" height="50" relative="1" as="geometry">
            <mxPoint x="60" y="230" as="sourcePoint" />
            <mxPoint x="440" y="80" as="targetPoint" />
          </mxGeometry>
        </mxCell>
        <mxCell id="tB0mkt_xWfgJxFO7g79Q-26" value="" style="endArrow=none;html=1;rounded=0;entryX=0;entryY=0.5;entryDx=0;entryDy=0;" edge="1" parent="1" source="tB0mkt_xWfgJxFO7g79Q-1" target="tB0mkt_xWfgJxFO7g79Q-12">
          <mxGeometry width="50" height="50" relative="1" as="geometry">
            <mxPoint x="70" y="190" as="sourcePoint" />
            <mxPoint x="120" y="140" as="targetPoint" />
          </mxGeometry>
        </mxCell>
        <mxCell id="tB0mkt_xWfgJxFO7g79Q-27" value="" style="endArrow=none;html=1;rounded=0;entryX=0;entryY=0.5;entryDx=0;entryDy=0;" edge="1" parent="1" source="tB0mkt_xWfgJxFO7g79Q-1" target="tB0mkt_xWfgJxFO7g79Q-14">
          <mxGeometry width="50" height="50" relative="1" as="geometry">
            <mxPoint x="120" y="200" as="sourcePoint" />
            <mxPoint x="170" y="150" as="targetPoint" />
          </mxGeometry>
        </mxCell>
        <mxCell id="tB0mkt_xWfgJxFO7g79Q-28" value="Use" style="endArrow=open;endSize=12;dashed=1;html=1;rounded=0;exitX=0;exitY=0.5;exitDx=0;exitDy=0;" edge="1" parent="1" source="tB0mkt_xWfgJxFO7g79Q-19" target="tB0mkt_xWfgJxFO7g79Q-29">
          <mxGeometry width="160" relative="1" as="geometry">
            <mxPoint x="460" y="120" as="sourcePoint" />
            <mxPoint x="620" y="120" as="targetPoint" />
            <Array as="points" />
          </mxGeometry>
        </mxCell>
        <mxCell id="tB0mkt_xWfgJxFO7g79Q-29" value="상품 구매" style="ellipse;whiteSpace=wrap;html=1;" vertex="1" parent="1">
          <mxGeometry x="400" y="250" width="95" height="40" as="geometry" />
        </mxCell>
        <mxCell id="tB0mkt_xWfgJxFO7g79Q-30" value="" style="endArrow=none;html=1;rounded=0;entryX=0.5;entryY=1;entryDx=0;entryDy=0;" edge="1" parent="1" source="tB0mkt_xWfgJxFO7g79Q-7" target="tB0mkt_xWfgJxFO7g79Q-29">
          <mxGeometry width="50" height="50" relative="1" as="geometry">
            <mxPoint x="180" y="440" as="sourcePoint" />
            <mxPoint x="380" y="300" as="targetPoint" />
            <Array as="points" />
          </mxGeometry>
        </mxCell>
        <mxCell id="tB0mkt_xWfgJxFO7g79Q-33" value="공지사항 작성" style="ellipse;whiteSpace=wrap;html=1;" vertex="1" parent="1">
          <mxGeometry x="600" y="160" width="100" height="40" as="geometry" />
        </mxCell>
        <mxCell id="tB0mkt_xWfgJxFO7g79Q-34" value="리뷰 작성" style="ellipse;whiteSpace=wrap;html=1;" vertex="1" parent="1">
          <mxGeometry x="170" y="310" width="70" height="50" as="geometry" />
        </mxCell>
        <mxCell id="tB0mkt_xWfgJxFO7g79Q-35" value="상품문의 작성" style="ellipse;whiteSpace=wrap;html=1;" vertex="1" parent="1">
          <mxGeometry x="350" y="80" width="110" height="40" as="geometry" />
        </mxCell>
        <mxCell id="tB0mkt_xWfgJxFO7g79Q-36" value="1:1문의 작성" style="ellipse;whiteSpace=wrap;html=1;" vertex="1" parent="1">
          <mxGeometry x="330" y="310" width="90" height="40" as="geometry" />
        </mxCell>
        <mxCell id="tB0mkt_xWfgJxFO7g79Q-37" value="상품문의 답변 작성" style="ellipse;whiteSpace=wrap;html=1;" vertex="1" parent="1">
          <mxGeometry x="540" y="40" width="110" height="50" as="geometry" />
        </mxCell>
        <mxCell id="tB0mkt_xWfgJxFO7g79Q-38" value="1:1문의 답변 작성" style="ellipse;whiteSpace=wrap;html=1;" vertex="1" parent="1">
          <mxGeometry x="590" y="-10" width="100" height="50" as="geometry" />
        </mxCell>
      </root>
    </mxGraphModel>
  </diagram>
</mxfile>
